<svg xmlns="http://www.w3.org/2000/svg" width="1200" height="630" viewBox="0 0 1200 630">
  <defs>
    <linearGradient id="bg" x1="0" y1="0" x2="1" y2="1">
      <stop offset="0%" stop-color="#0a3d2e"/>
      <stop offset="100%" stop-color="#1a5a3a"/>
    </linearGradient>
  </defs>
  <rect fill="url(#bg)" width="1200" height="630"/>
  <path d="M0 450 Q200 380 400 420 Q600 460 800 400 Q1000 340 1200 380 L1200 630 L0 630 Z" fill="#0d4f3a" opacity="0.5"/>
  <path d="M0 500 Q200 450 400 480 Q600 510 800 460 Q1000 410 1200 440 L1200 630 L0 630 Z" fill="#0a3d2e" opacity="0.7"/>
  <circle cx="200" cy="180" r="60" fill="#f4d03f" opacity="0.9"/>
  <circle cx="210" cy="170" r="50" fill="#f7dc6f" opacity="0.4"/>
  <line x1="200" y1="180" x2="200" y2="120" stroke="#f4d03f" stroke-width="3" opacity="0.6"/>
  <line x1="200" y1="180" x2="250" y2="160" stroke="#f4d03f" stroke-width="3" opacity="0.6"/>
  <line x1="200" y1="180" x2="150" y2="160" stroke="#f4d03f" stroke-width="3" opacity="0.6"/>
  <text x="80" y="280" font-family="Georgia, serif" font-size="52" font-weight="700" fill="#ffffff">Climate Summit</text>
  <text x="80" y="340" font-family="Georgia, serif" font-size="52" font-weight="700" fill="#ffffff">Agreement</text>
  <rect x="80" y="370" width="60" height="4" fill="#2ecc71"/>
  <text x="80" y="410" font-family="Arial, sans-serif" font-size="20" fill="#66bb88">Climate · 2025</text>
</svg>
