<svg xmlns="http://www.w3.org/2000/svg" width="1920" height="1080" viewBox="0 0 1920 1080">
  <defs>
    <linearGradient id="bg" x1="0%" y1="0%" x2="100%" y2="100%">
      <stop offset="0%" stop-color="#1a1a1a"/>
      <stop offset="50%" stop-color="#2d2d2d"/>
      <stop offset="100%" stop-color="#1a1a1a"/>
    </linearGradient>
    <linearGradient id="overlay" x1="0%" y1="100%" x2="100%" y2="0%">
      <stop offset="0%" stop-color="#64748b" stop-opacity="0.08"/>
      <stop offset="100%" stop-color="#64748b" stop-opacity="0"/>
    </linearGradient>
    <linearGradient id="bar" x1="0%" y1="0%" x2="100%" y2="0%">
      <stop offset="0%" stop-color="#64748b"/>
      <stop offset="30%" stop-color="#64748b" stop-opacity="0.6"/>
      <stop offset="100%" stop-color="#64748b" stop-opacity="0"/>
    </linearGradient>
    <radialGradient id="spotlight" cx="30%" cy="30%" r="60%">
      <stop offset="0%" stop-color="#ffffff" stop-opacity="0.04"/>
      <stop offset="100%" stop-color="#ffffff" stop-opacity="0"/>
    </radialGradient>
    <filter id="shadow">
      <feDropShadow dx="0" dy="3" stdDeviation="6" flood-color="#000" flood-opacity="0.4"/>
    </filter>
    <pattern id="dots" x="0" y="0" width="20" height="20" patternUnits="userSpaceOnUse">
      <circle cx="10" cy="10" r="1" fill="#64748b" fill-opacity="0.08"/>
    </pattern>
  </defs>
  <rect width="1920" height="1080" fill="url(#bg)"/>
  <rect width="1920" height="1080" fill="url(#spotlight)"/>
  <rect width="1920" height="1080" fill="url(#overlay)"/>
  <rect width="1920" height="1080" fill="url(#dots)"/>
  <line x1="80" y1="0" x2="80" y2="1080" stroke="#64748b" stroke-opacity="0.04" stroke-width="1"/>
  <line x1="160" y1="0" x2="160" y2="1080" stroke="#64748b" stroke-opacity="0.04" stroke-width="1"/>
  <line x1="240" y1="0" x2="240" y2="1080" stroke="#64748b" stroke-opacity="0.04" stroke-width="1"/>
  <line x1="320" y1="0" x2="320" y2="1080" stroke="#64748b" stroke-opacity="0.04" stroke-width="1"/>
  <line x1="400" y1="0" x2="400" y2="1080" stroke="#64748b" stroke-opacity="0.04" stroke-width="1"/>
  <line x1="480" y1="0" x2="480" y2="1080" stroke="#64748b" stroke-opacity="0.04" stroke-width="1"/>
  <line x1="560" y1="0" x2="560" y2="1080" stroke="#64748b" stroke-opacity="0.04" stroke-width="1"/>
  <line x1="640" y1="0" x2="640" y2="1080" stroke="#64748b" stroke-opacity="0.04" stroke-width="1"/>
  <line x1="720" y1="0" x2="720" y2="1080" stroke="#64748b" stroke-opacity="0.04" stroke-width="1"/>
  <line x1="800" y1="0" x2="800" y2="1080" stroke="#64748b" stroke-opacity="0.04" stroke-width="1"/>
  <line x1="880" y1="0" x2="880" y2="1080" stroke="#64748b" stroke-opacity="0.04" stroke-width="1"/>
  <line x1="960" y1="0" x2="960" y2="1080" stroke="#64748b" stroke-opacity="0.04" stroke-width="1"/>
  <line x1="1040" y1="0" x2="1040" y2="1080" stroke="#64748b" stroke-opacity="0.04" stroke-width="1"/>
  <line x1="1120" y1="0" x2="1120" y2="1080" stroke="#64748b" stroke-opacity="0.04" stroke-width="1"/>
  <line x1="1200" y1="0" x2="1200" y2="1080" stroke="#64748b" stroke-opacity="0.04" stroke-width="1"/>
  <line x1="1280" y1="0" x2="1280" y2="1080" stroke="#64748b" stroke-opacity="0.04" stroke-width="1"/>
  <line x1="1360" y1="0" x2="1360" y2="1080" stroke="#64748b" stroke-opacity="0.04" stroke-width="1"/>
  <line x1="1440" y1="0" x2="1440" y2="1080" stroke="#64748b" stroke-opacity="0.04" stroke-width="1"/>
  <line x1="1520" y1="0" x2="1520" y2="1080" stroke="#64748b" stroke-opacity="0.04" stroke-width="1"/>
  <line x1="1600" y1="0" x2="1600" y2="1080" stroke="#64748b" stroke-opacity="0.04" stroke-width="1"/>
  <line x1="1680" y1="0" x2="1680" y2="1080" stroke="#64748b" stroke-opacity="0.04" stroke-width="1"/>
  <line x1="1760" y1="0" x2="1760" y2="1080" stroke="#64748b" stroke-opacity="0.04" stroke-width="1"/>
  <line x1="1840" y1="0" x2="1840" y2="1080" stroke="#64748b" stroke-opacity="0.04" stroke-width="1"/>
  <line x1="0" y1="60" x2="1920" y2="60" stroke="#64748b" stroke-opacity="0.04" stroke-width="1"/>
  <line x1="0" y1="120" x2="1920" y2="120" stroke="#64748b" stroke-opacity="0.04" stroke-width="1"/>
  <line x1="0" y1="180" x2="1920" y2="180" stroke="#64748b" stroke-opacity="0.04" stroke-width="1"/>
  <line x1="0" y1="240" x2="1920" y2="240" stroke="#64748b" stroke-opacity="0.04" stroke-width="1"/>
  <line x1="0" y1="300" x2="1920" y2="300" stroke="#64748b" stroke-opacity="0.04" stroke-width="1"/>
  <line x1="0" y1="360" x2="1920" y2="360" stroke="#64748b" stroke-opacity="0.04" stroke-width="1"/>
  <line x1="0" y1="420" x2="1920" y2="420" stroke="#64748b" stroke-opacity="0.04" stroke-width="1"/>
  <line x1="0" y1="480" x2="1920" y2="480" stroke="#64748b" stroke-opacity="0.04" stroke-width="1"/>
  <line x1="0" y1="540" x2="1920" y2="540" stroke="#64748b" stroke-opacity="0.04" stroke-width="1"/>
  <line x1="0" y1="600" x2="1920" y2="600" stroke="#64748b" stroke-opacity="0.04" stroke-width="1"/>
  <line x1="0" y1="660" x2="1920" y2="660" stroke="#64748b" stroke-opacity="0.04" stroke-width="1"/>
  <line x1="0" y1="720" x2="1920" y2="720" stroke="#64748b" stroke-opacity="0.04" stroke-width="1"/>
  <line x1="0" y1="780" x2="1920" y2="780" stroke="#64748b" stroke-opacity="0.04" stroke-width="1"/>
  <line x1="0" y1="840" x2="1920" y2="840" stroke="#64748b" stroke-opacity="0.04" stroke-width="1"/>
  <line x1="0" y1="900" x2="1920" y2="900" stroke="#64748b" stroke-opacity="0.04" stroke-width="1"/>
  <line x1="0" y1="960" x2="1920" y2="960" stroke="#64748b" stroke-opacity="0.04" stroke-width="1"/>
  <line x1="0" y1="1020" x2="1920" y2="1020" stroke="#64748b" stroke-opacity="0.04" stroke-width="1"/>
  <circle cx="150" cy="150" r="400" fill="#64748b" fill-opacity="0.036"/>
  <circle cx="1700" cy="200" r="300" fill="#64748b" fill-opacity="0.035"/>
  <circle cx="200" cy="800" r="250" fill="#64748b" fill-opacity="0.025"/>
  <circle cx="1600" cy="850" r="350" fill="#64748b" fill-opacity="0.017"/>
  <circle cx="900" cy="500" r="500" fill="#64748b" fill-opacity="0.030"/>
  <circle cx="100" cy="500" r="200" fill="#64748b" fill-opacity="0.044"/>
  <circle cx="1800" cy="450" r="280" fill="#64748b" fill-opacity="0.042"/>
  <circle cx="600" cy="100" r="180" fill="#64748b" fill-opacity="0.017"/>
  <line x1="1168.3590031755289" y1="135.97829733058543" x2="1368.3590031755289" y2="-164.02170266941457" stroke="#64748b" stroke-opacity="0.06" stroke-width="1.81326508327202"/>
  <line x1="1080.9523679242643" y1="695.3773354448498" x2="1280.9523679242643" y2="395.3773354448498" stroke="#64748b" stroke-opacity="0.06" stroke-width="2.2894445736689146"/>
  <line x1="946.8048949951519" y1="754.7470482483687" x2="1146.804894995152" y2="454.74704824836874" stroke="#64748b" stroke-opacity="0.06" stroke-width="2.7336269755041687"/>
  <line x1="595.6328043801138" y1="1074.1782502999156" x2="795.6328043801138" y2="774.1782502999156" stroke="#64748b" stroke-opacity="0.06" stroke-width="2.234984104412545"/>
  <line x1="517.1630457329279" y1="204.22546941491524" x2="717.1630457329279" y2="-95.77453058508476" stroke="#64748b" stroke-opacity="0.06" stroke-width="2.615425821307031"/>
  <line x1="35.188462437757835" y1="588.5106069682388" x2="235.18846243775783" y2="288.5106069682388" stroke="#64748b" stroke-opacity="0.06" stroke-width="3.1807708300399646"/>
  <line x1="439.1787063189655" y1="441.4974283939221" x2="639.1787063189655" y2="141.49742839392212" stroke="#64748b" stroke-opacity="0.06" stroke-width="3.9199151997603168"/>
  <line x1="19.07811912458797" y1="488.2083718969706" x2="219.07811912458797" y2="188.20837189697062" stroke="#64748b" stroke-opacity="0.06" stroke-width="3.861115045490302"/>
  <line x1="1582.3622894807147" y1="754.6134024159138" x2="1782.3622894807147" y2="454.6134024159138" stroke="#64748b" stroke-opacity="0.06" stroke-width="2.6475414960189965"/>
  <line x1="1287.1416287161746" y1="761.9538572565485" x2="1487.1416287161746" y2="461.95385725654853" stroke="#64748b" stroke-opacity="0.06" stroke-width="2.077210284206185"/>
  <rect x="0" y="0" width="1920" height="4" fill="#64748b" opacity="0.5"/>
  <rect x="0" y="1076" width="1920" height="4" fill="#64748b" opacity="0.3"/>
  <rect x="80" y="0" width="4" height="1080" fill="#64748b" opacity="0.1"/>
  <rect x="80" y="350" width="6" height="380" fill="#64748b" opacity="0.15"/>
  <rect x="110" y="430" width="200" height="4" fill="#64748b" opacity="0.4"/>
  <g filter="url(#shadow)">
    <text x="130" y="520" font-family="Georgia,'Times New Roman',serif" font-size="96" font-weight="bold" fill="#ffffff" letter-spacing="4">NEWS</text>
  </g>
  <rect x="130" y="545" width="160" height="5" fill="#64748b" opacity="0.7"/>
  <rect x="300" y="545" width="80" height="5" fill="#64748b" opacity="0.3"/>
  <line x1="130" y1="560" x2="400" y2="560" stroke="#64748b" stroke-opacity="0.15" stroke-width="1"/>
  <rect x="80" y="780" width="1760" height="1" fill="#64748b" opacity="0.08"/>
  <text x="130" y="830" font-family="Georgia,'Times New Roman',serif" font-size="18" fill="#64748b" opacity="0.5" letter-spacing="6">EDITORIAL</text>
  <rect x="130" y="850" width="60" height="2" fill="#64748b" opacity="0.2"/>
</svg>