<svg xmlns="http://www.w3.org/2000/svg" width="1920" height="1080" viewBox="0 0 1920 1080">
  <defs>
    <linearGradient id="bg" x1="0%" y1="0%" x2="100%" y2="100%">
      <stop offset="0%" stop-color="#0f132e"/>
      <stop offset="50%" stop-color="#1e1b4a"/>
      <stop offset="100%" stop-color="#0f132e"/>
    </linearGradient>
    <linearGradient id="overlay" x1="0%" y1="100%" x2="100%" y2="0%">
      <stop offset="0%" stop-color="#6366f1" stop-opacity="0.08"/>
      <stop offset="100%" stop-color="#6366f1" stop-opacity="0"/>
    </linearGradient>
    <linearGradient id="bar" x1="0%" y1="0%" x2="100%" y2="0%">
      <stop offset="0%" stop-color="#6366f1"/>
      <stop offset="30%" stop-color="#6366f1" stop-opacity="0.6"/>
      <stop offset="100%" stop-color="#6366f1" stop-opacity="0"/>
    </linearGradient>
    <radialGradient id="spotlight" cx="30%" cy="30%" r="60%">
      <stop offset="0%" stop-color="#ffffff" stop-opacity="0.04"/>
      <stop offset="100%" stop-color="#ffffff" stop-opacity="0"/>
    </radialGradient>
    <filter id="shadow">
      <feDropShadow dx="0" dy="3" stdDeviation="6" flood-color="#000" flood-opacity="0.4"/>
    </filter>
    <pattern id="dots" x="0" y="0" width="20" height="20" patternUnits="userSpaceOnUse">
      <circle cx="10" cy="10" r="1" fill="#6366f1" fill-opacity="0.08"/>
    </pattern>
  </defs>
  <rect width="1920" height="1080" fill="url(#bg)"/>
  <rect width="1920" height="1080" fill="url(#spotlight)"/>
  <rect width="1920" height="1080" fill="url(#overlay)"/>
  <rect width="1920" height="1080" fill="url(#dots)"/>
  <line x1="80" y1="0" x2="80" y2="1080" stroke="#6366f1" stroke-opacity="0.04" stroke-width="1"/>
  <line x1="160" y1="0" x2="160" y2="1080" stroke="#6366f1" stroke-opacity="0.04" stroke-width="1"/>
  <line x1="240" y1="0" x2="240" y2="1080" stroke="#6366f1" stroke-opacity="0.04" stroke-width="1"/>
  <line x1="320" y1="0" x2="320" y2="1080" stroke="#6366f1" stroke-opacity="0.04" stroke-width="1"/>
  <line x1="400" y1="0" x2="400" y2="1080" stroke="#6366f1" stroke-opacity="0.04" stroke-width="1"/>
  <line x1="480" y1="0" x2="480" y2="1080" stroke="#6366f1" stroke-opacity="0.04" stroke-width="1"/>
  <line x1="560" y1="0" x2="560" y2="1080" stroke="#6366f1" stroke-opacity="0.04" stroke-width="1"/>
  <line x1="640" y1="0" x2="640" y2="1080" stroke="#6366f1" stroke-opacity="0.04" stroke-width="1"/>
  <line x1="720" y1="0" x2="720" y2="1080" stroke="#6366f1" stroke-opacity="0.04" stroke-width="1"/>
  <line x1="800" y1="0" x2="800" y2="1080" stroke="#6366f1" stroke-opacity="0.04" stroke-width="1"/>
  <line x1="880" y1="0" x2="880" y2="1080" stroke="#6366f1" stroke-opacity="0.04" stroke-width="1"/>
  <line x1="960" y1="0" x2="960" y2="1080" stroke="#6366f1" stroke-opacity="0.04" stroke-width="1"/>
  <line x1="1040" y1="0" x2="1040" y2="1080" stroke="#6366f1" stroke-opacity="0.04" stroke-width="1"/>
  <line x1="1120" y1="0" x2="1120" y2="1080" stroke="#6366f1" stroke-opacity="0.04" stroke-width="1"/>
  <line x1="1200" y1="0" x2="1200" y2="1080" stroke="#6366f1" stroke-opacity="0.04" stroke-width="1"/>
  <line x1="1280" y1="0" x2="1280" y2="1080" stroke="#6366f1" stroke-opacity="0.04" stroke-width="1"/>
  <line x1="1360" y1="0" x2="1360" y2="1080" stroke="#6366f1" stroke-opacity="0.04" stroke-width="1"/>
  <line x1="1440" y1="0" x2="1440" y2="1080" stroke="#6366f1" stroke-opacity="0.04" stroke-width="1"/>
  <line x1="1520" y1="0" x2="1520" y2="1080" stroke="#6366f1" stroke-opacity="0.04" stroke-width="1"/>
  <line x1="1600" y1="0" x2="1600" y2="1080" stroke="#6366f1" stroke-opacity="0.04" stroke-width="1"/>
  <line x1="1680" y1="0" x2="1680" y2="1080" stroke="#6366f1" stroke-opacity="0.04" stroke-width="1"/>
  <line x1="1760" y1="0" x2="1760" y2="1080" stroke="#6366f1" stroke-opacity="0.04" stroke-width="1"/>
  <line x1="1840" y1="0" x2="1840" y2="1080" stroke="#6366f1" stroke-opacity="0.04" stroke-width="1"/>
  <line x1="0" y1="60" x2="1920" y2="60" stroke="#6366f1" stroke-opacity="0.04" stroke-width="1"/>
  <line x1="0" y1="120" x2="1920" y2="120" stroke="#6366f1" stroke-opacity="0.04" stroke-width="1"/>
  <line x1="0" y1="180" x2="1920" y2="180" stroke="#6366f1" stroke-opacity="0.04" stroke-width="1"/>
  <line x1="0" y1="240" x2="1920" y2="240" stroke="#6366f1" stroke-opacity="0.04" stroke-width="1"/>
  <line x1="0" y1="300" x2="1920" y2="300" stroke="#6366f1" stroke-opacity="0.04" stroke-width="1"/>
  <line x1="0" y1="360" x2="1920" y2="360" stroke="#6366f1" stroke-opacity="0.04" stroke-width="1"/>
  <line x1="0" y1="420" x2="1920" y2="420" stroke="#6366f1" stroke-opacity="0.04" stroke-width="1"/>
  <line x1="0" y1="480" x2="1920" y2="480" stroke="#6366f1" stroke-opacity="0.04" stroke-width="1"/>
  <line x1="0" y1="540" x2="1920" y2="540" stroke="#6366f1" stroke-opacity="0.04" stroke-width="1"/>
  <line x1="0" y1="600" x2="1920" y2="600" stroke="#6366f1" stroke-opacity="0.04" stroke-width="1"/>
  <line x1="0" y1="660" x2="1920" y2="660" stroke="#6366f1" stroke-opacity="0.04" stroke-width="1"/>
  <line x1="0" y1="720" x2="1920" y2="720" stroke="#6366f1" stroke-opacity="0.04" stroke-width="1"/>
  <line x1="0" y1="780" x2="1920" y2="780" stroke="#6366f1" stroke-opacity="0.04" stroke-width="1"/>
  <line x1="0" y1="840" x2="1920" y2="840" stroke="#6366f1" stroke-opacity="0.04" stroke-width="1"/>
  <line x1="0" y1="900" x2="1920" y2="900" stroke="#6366f1" stroke-opacity="0.04" stroke-width="1"/>
  <line x1="0" y1="960" x2="1920" y2="960" stroke="#6366f1" stroke-opacity="0.04" stroke-width="1"/>
  <line x1="0" y1="1020" x2="1920" y2="1020" stroke="#6366f1" stroke-opacity="0.04" stroke-width="1"/>
  <circle cx="150" cy="150" r="400" fill="#6366f1" fill-opacity="0.016"/>
  <circle cx="1700" cy="200" r="300" fill="#6366f1" fill-opacity="0.031"/>
  <circle cx="200" cy="800" r="250" fill="#6366f1" fill-opacity="0.029"/>
  <circle cx="1600" cy="850" r="350" fill="#6366f1" fill-opacity="0.015"/>
  <circle cx="900" cy="500" r="500" fill="#6366f1" fill-opacity="0.022"/>
  <circle cx="100" cy="500" r="200" fill="#6366f1" fill-opacity="0.019"/>
  <circle cx="1800" cy="450" r="280" fill="#6366f1" fill-opacity="0.040"/>
  <circle cx="600" cy="100" r="180" fill="#6366f1" fill-opacity="0.030"/>
  <line x1="1022.4506677512313" y1="558.6520102166135" x2="1222.4506677512313" y2="258.65201021661346" stroke="#6366f1" stroke-opacity="0.06" stroke-width="1.0750564481704972"/>
  <line x1="1298.2942620728998" y1="970.9965665639976" x2="1498.2942620728998" y2="670.9965665639976" stroke="#6366f1" stroke-opacity="0.06" stroke-width="1.5222655790476194"/>
  <line x1="188.33235833550134" y1="500.2547537824346" x2="388.33235833550134" y2="200.2547537824346" stroke="#6366f1" stroke-opacity="0.06" stroke-width="2.2279585701250433"/>
  <line x1="1309.9334773052847" y1="302.5146183627621" x2="1509.9334773052847" y2="2.5146183627621213" stroke="#6366f1" stroke-opacity="0.06" stroke-width="3.227297904506663"/>
  <line x1="1634.8423293604774" y1="17.27197428409496" x2="1834.8423293604774" y2="-282.72802571590506" stroke="#6366f1" stroke-opacity="0.06" stroke-width="1.2207067523389676"/>
  <line x1="1708.8560388244125" y1="1073.9441807121063" x2="1908.8560388244125" y2="773.9441807121063" stroke="#6366f1" stroke-opacity="0.06" stroke-width="2.788486071635313"/>
  <line x1="1261.7401440829187" y1="98.43730550887952" x2="1461.7401440829187" y2="-201.56269449112048" stroke="#6366f1" stroke-opacity="0.06" stroke-width="1.035048511220163"/>
  <line x1="838.0958122852791" y1="312.7528436335966" x2="1038.095812285279" y2="12.752843633596626" stroke="#6366f1" stroke-opacity="0.06" stroke-width="1.335914930165588"/>
  <line x1="822.8684764336735" y1="460.42762746228556" x2="1022.8684764336735" y2="160.42762746228556" stroke="#6366f1" stroke-opacity="0.06" stroke-width="3.4470804262951815"/>
  <line x1="1394.6438634452538" y1="977.0754721292823" x2="1594.6438634452538" y2="677.0754721292823" stroke="#6366f1" stroke-opacity="0.06" stroke-width="3.294642191824148"/>
  <rect x="0" y="0" width="1920" height="4" fill="#6366f1" opacity="0.5"/>
  <rect x="0" y="1076" width="1920" height="4" fill="#6366f1" opacity="0.3"/>
  <rect x="80" y="0" width="4" height="1080" fill="#6366f1" opacity="0.1"/>
  <rect x="80" y="350" width="6" height="380" fill="#6366f1" opacity="0.15"/>
  <rect x="110" y="430" width="200" height="4" fill="#6366f1" opacity="0.4"/>
  <g filter="url(#shadow)">
    <text x="130" y="520" font-family="Georgia,'Times New Roman',serif" font-size="96" font-weight="bold" fill="#ffffff" letter-spacing="4">SPORTS</text>
  </g>
  <rect x="130" y="545" width="160" height="5" fill="#6366f1" opacity="0.7"/>
  <rect x="300" y="545" width="80" height="5" fill="#6366f1" opacity="0.3"/>
  <line x1="130" y1="560" x2="400" y2="560" stroke="#6366f1" stroke-opacity="0.15" stroke-width="1"/>
  <rect x="80" y="780" width="1760" height="1" fill="#6366f1" opacity="0.08"/>
  <text x="130" y="830" font-family="Georgia,'Times New Roman',serif" font-size="18" fill="#6366f1" opacity="0.5" letter-spacing="6">EDITORIAL</text>
  <rect x="130" y="850" width="60" height="2" fill="#6366f1" opacity="0.2"/>
</svg>